<svg id="Layer_1" data-name="Layer 1" xmlns="http://www.w3.org/2000/svg" viewBox="0 0 128 128"><defs><style>.cls-1{fill:#293b52;}</style></defs><title>img_logo</title><path class="cls-1" d="M115.8052,45h-21.25a12.964,12.964,0,0,0-25.8076-.1313q-.0066.0656-.0126.1313H47.4127a13.0039,13.0039,0,0,0-12.771-11.7834,11.34,11.34,0,0,0-3.2627.3782,12.895,12.895,0,0,0-2.962,1.1389,13.0938,13.0938,0,0,0-4.6189,4.14A12.9462,12.9462,0,0,0,21.5926,45H.3453A33.71,33.71,0,0,1,5.3067,28.4243,34.5443,34.5443,0,0,1,17.7653,16.3862,34.1608,34.1608,0,0,1,34.5027,12h.0989a34.11,34.11,0,0,1,22.6852,8.7049l.7873.7048.7873-.7048A34.1739,34.1739,0,0,1,115.8052,45Z"/><path class="cls-1" d="M21.3807,12l-.4408.1707A36.9517,36.9517,0,0,0,.1707,32.94L0,33.3807V12Z"/><path class="cls-1" d="M128.1852,81.37A34.4137,34.4137,0,0,1,95,115.7218V94.3529a13.0383,13.0383,0,0,0,9.5291-20.4089q-.1388-.1994-.2847-.3935l-.7111-.9481-.9481.7111A34.3785,34.3785,0,0,1,47.6139,47H68.9781a13.0385,13.0385,0,0,0,25.9674,0h21.3689a34.5263,34.5263,0,0,1-.9079,6.7721l-.1683.7135.5642.4694A34.2942,34.2942,0,0,1,128.1852,81.37Z"/></svg>