<svg id="Layer_1" data-name="Layer 1" xmlns="http://www.w3.org/2000/svg" viewBox="0 0 1280 128"><defs><style>.cls-1{fill:#293b52;}</style></defs><title>img_wordmark</title><path class="cls-1" d="M116.1288,45.0466H94.76a13.0367,13.0367,0,0,0-25.9523-.1321q-.0067.066-.0127.1321H47.3527A13.0767,13.0767,0,0,0,34.51,33.1971a11.4061,11.4061,0,0,0-3.281.38,12.969,12.969,0,0,0-2.9786,1.1453,13.1672,13.1672,0,0,0-4.6449,4.1631,13.0194,13.0194,0,0,0-2.2178,6.1608H.0213A33.9,33.9,0,0,1,5.0105,28.3779,34.7392,34.7392,0,0,1,17.539,16.2723,34.3529,34.3529,0,0,1,34.37,11.8615H34.47a34.3012,34.3012,0,0,1,22.8124,8.7537l.7917.7088.7917-.7088a34.3655,34.3655,0,0,1,57.2632,24.4314Z"/><path class="cls-1" d="M21.3807,11.8615l-.4409.1707A36.9513,36.9513,0,0,0,.1707,32.8013L0,33.2422V11.8615Z"/><path class="cls-1" d="M128,81.7872a34.4136,34.4136,0,0,1-33.1851,34.3513V94.77a13.0383,13.0383,0,0,0,9.5291-20.4088q-.1388-.1994-.2847-.3935l-.7111-.9482L102.4,73.73A34.3783,34.3783,0,0,1,47.4286,47.4169H68.7927a13.0384,13.0384,0,0,0,25.9673,0h21.3688a34.5357,34.5357,0,0,1-.9078,6.7722l-.1683.7135.5641.4693A34.294,34.294,0,0,1,128,81.7872Z"/><path class="cls-1" d="M204.3145,34.1152a4.8746,4.8746,0,0,1,4.872,4.8721,4.792,4.792,0,0,1-1.4277,3.5273,4.6925,4.6925,0,0,1-3.4443,1.4288,4.8785,4.8785,0,0,1-4.9561-4.9561,4.69,4.69,0,0,1,1.4277-3.4443A4.7963,4.7963,0,0,1,204.3145,34.1152Zm3.4443,54.18h-6.7207v-38.22h6.7207Z"/><path class="cls-1" d="M250.85,88.2949h-6.72V68.3027q0-5.8784-2.52-9.0722a8.6644,8.6644,0,0,0-7.2237-3.1914q-9.8276,0-9.8281,12.6V88.2949h-6.72V66.791q0-7.812,4.5361-12.6T234.47,49.4033q7.39,0,11.8858,4.7451,4.4926,4.7476,4.4941,12.5586Z"/><path class="cls-1" d="M265.1289,88.2949h-6.72V47.4092q0-15.2256,15.2881-15.2266h5.5439v5.7959H274.957q-5.1255,0-7.4765,2.2842-2.3526,2.2838-2.3516,7.1045v2.96h14.1123v5.88H265.1289Z"/><path class="cls-1" d="M300.4912,49.4033a18.8806,18.8806,0,0,1,13.9443,5.88,19.4825,19.4825,0,0,1,5.7959,14.1953,18.8154,18.8154,0,0,1-5.7959,13.7764,19.0107,19.0107,0,0,1-13.9443,5.7959,19.584,19.584,0,0,1-14.28-5.7959,19.166,19.166,0,0,1-5.88-14.1963,18.7778,18.7778,0,0,1,5.88-13.8594A19.584,19.584,0,0,1,300.4912,49.4033Zm0,6.6358a12.8455,12.8455,0,0,0-9.3242,3.78,12.428,12.428,0,0,0-3.8633,9.2393A13.06,13.06,0,0,0,300.6592,82.415a11.9634,11.9634,0,0,0,8.82-3.8642,12.5536,12.5536,0,0,0,3.78-9.0723,13.2766,13.2766,0,0,0-3.7383-9.5332A12.0419,12.0419,0,0,0,300.4912,56.0391Z"/><path class="cls-1" d="M333.67,88.2949h-6.72V50.1592h6.72v6.72a13.108,13.108,0,0,1,12.4326-7.56h2.52v6.3272h-1.3438q-7.0561,0-10.332,3.7119Q333.6694,63.0718,333.67,71Z"/><path class="cls-1" d="M405.8262,88.2949h-6.72V65.4473a10.1687,10.1687,0,0,0-2.1845-6.8887,7.483,7.483,0,0,0-5.9639-2.52q-4.4531,0-6.0478,2.3935a12.7983,12.7983,0,0,0-1.9317,3.8643,21.3219,21.3219,0,0,0-.3369,4.41V88.2949h-6.72v-22.26q0-9.9962-8.4834-9.9961-4.2847,0-5.9229,2.4355a11.9368,11.9368,0,0,0-1.89,3.6963,24.2035,24.2035,0,0,0-.252,4.2V88.2949h-6.72V65.3633a23.8691,23.8691,0,0,1,.7978-7.0567,16.1929,16.1929,0,0,1,3.9063-5.67q3.1054-3.2329,9.7432-3.2334a13.4506,13.4506,0,0,1,12.2646,7.0557,13.0126,13.0126,0,0,1,12.0117-7.0557q6.6343,0,10.542,4.1572,3.9068,4.1588,3.9063,11.1309Z"/><path class="cls-1" d="M450.9346,88.2949h-6.72V71.5791q0-7.0561-3.57-11.2978a11.9255,11.9255,0,0,0-9.6181-4.2422,12.4346,12.4346,0,0,0-9.24,3.8642,12.951,12.951,0,0,0-3.7793,9.4072A12.9124,12.9124,0,0,0,431.1943,82.415q5.0406,0,10.2481-4.62v7.14a17.6694,17.6694,0,0,1-5.208,3.1924,17.0756,17.0756,0,0,1-5.88.9238,18.4956,18.4956,0,0,1-13.6924-5.7119,19.218,19.218,0,0,1-5.6279-14.0284,19.1748,19.1748,0,0,1,5.8379-14.0693A19.3739,19.3739,0,0,1,431.11,49.4033a18.8241,18.8241,0,0,1,14.1962,5.88q5.6265,5.88,5.628,14.9522Z"/><path class="cls-1" d="M464.8779,56.207V74.0146q0,4.957,1.7637,6.6368,1.7652,1.68,7.1406,1.68h3.2754v5.9638h-3.6113q-8.7378,0-12.0127-3.0244t-3.2754-11.0039V38.7354h6.72V50.3271h12.18v5.88Z"/><path class="cls-1" d="M488.9863,34.1152a4.8746,4.8746,0,0,1,4.8721,4.8721,4.7924,4.7924,0,0,1-1.4277,3.5273,4.6928,4.6928,0,0,1-3.4444,1.4288,4.8785,4.8785,0,0,1-4.956-4.9561,4.69,4.69,0,0,1,1.4277-3.4443A4.7961,4.7961,0,0,1,488.9863,34.1152Zm3.4444,54.18H485.71v-38.22h6.7207Z"/><path class="cls-1" d="M520.3174,49.4033a18.8808,18.8808,0,0,1,13.9443,5.88,19.4825,19.4825,0,0,1,5.7959,14.1953,18.8154,18.8154,0,0,1-5.7959,13.7764,19.0108,19.0108,0,0,1-13.9443,5.7959,19.5838,19.5838,0,0,1-14.28-5.7959,19.1661,19.1661,0,0,1-5.88-14.1963,18.7779,18.7779,0,0,1,5.88-13.8594A19.5838,19.5838,0,0,1,520.3174,49.4033Zm0,6.6358a12.8455,12.8455,0,0,0-9.3242,3.78,12.428,12.428,0,0,0-3.8633,9.2393A13.06,13.06,0,0,0,520.4854,82.415a11.9634,11.9634,0,0,0,8.82-3.8642,12.5535,12.5535,0,0,0,3.78-9.0723,13.2765,13.2765,0,0,0-3.7382-9.5332A12.0419,12.0419,0,0,0,520.3174,56.0391Z"/><path class="cls-1" d="M578.2764,88.2949h-6.72V68.3027q0-5.8784-2.52-9.0722a8.6643,8.6643,0,0,0-7.2236-3.1914q-9.8277,0-9.8281,12.6V88.2949h-6.72V66.791q0-7.812,4.5362-12.6t12.0957-4.7881q7.39,0,11.8857,4.7451,4.4927,4.7476,4.4942,12.5586Z"/><path class="cls-1" d="M664.29,88.2949h-6.72V65.4473a10.1682,10.1682,0,0,0-2.1846-6.8887,7.4827,7.4827,0,0,0-5.9638-2.52q-4.4532,0-6.0479,2.3935a12.7975,12.7975,0,0,0-1.9316,3.8643,21.3219,21.3219,0,0,0-.3369,4.41V88.2949h-6.72v-22.26q0-9.9962-8.4834-9.9961-4.2846,0-5.9228,2.4355a11.94,11.94,0,0,0-1.89,3.6963,24.2164,24.2164,0,0,0-.2519,4.2V88.2949h-6.72V65.3633a23.8691,23.8691,0,0,1,.7978-7.0567,16.1916,16.1916,0,0,1,3.9063-5.67q3.1055-3.2329,9.7431-3.2334A13.4506,13.4506,0,0,1,637.83,56.459a13.0126,13.0126,0,0,1,12.0117-7.0557q6.6342,0,10.542,4.1572,3.9067,4.1588,3.9062,11.1309Z"/><path class="cls-1" d="M709.3984,88.2949h-6.72V71.5791q0-7.0561-3.57-11.2978a11.9257,11.9257,0,0,0-9.6182-4.2422,12.4346,12.4346,0,0,0-9.24,3.8642,12.951,12.951,0,0,0-3.7793,9.4072A12.9124,12.9124,0,0,0,689.6582,82.415q5.0406,0,10.2481-4.62v7.14a17.67,17.67,0,0,1-5.2081,3.1924,17.075,17.075,0,0,1-5.88.9238,18.4956,18.4956,0,0,1-13.6924-5.7119,19.2177,19.2177,0,0,1-5.628-14.0284,19.1752,19.1752,0,0,1,5.8379-14.0693,19.3739,19.3739,0,0,1,14.2383-5.8379,18.8244,18.8244,0,0,1,14.1963,5.88q5.6265,5.88,5.6279,14.9522Z"/><path class="cls-1" d="M749.8857,88.2949h-6.72V68.3027q0-5.8784-2.5205-9.0722a8.6643,8.6643,0,0,0-7.2236-3.1914q-9.8277,0-9.8281,12.6V88.2949h-6.72V66.791q0-7.812,4.5362-12.6t12.0957-4.7881q7.39,0,11.8857,4.7451,4.4927,4.7476,4.4941,12.5586Z"/><path class="cls-1" d="M794.9922,88.2949h-6.72V71.5791q0-7.0561-3.57-11.2978a11.9255,11.9255,0,0,0-9.6181-4.2422,12.4346,12.4346,0,0,0-9.24,3.8642,12.9506,12.9506,0,0,0-3.7793,9.4072A12.9124,12.9124,0,0,0,775.252,82.415q5.04,0,10.248-4.62v7.14a17.6694,17.6694,0,0,1-5.208,3.1924,17.0756,17.0756,0,0,1-5.88.9238A18.4956,18.4956,0,0,1,760.72,83.3389a19.218,19.218,0,0,1-5.6279-14.0284A19.1748,19.1748,0,0,1,760.93,55.2412a19.3739,19.3739,0,0,1,14.2383-5.8379,18.8245,18.8245,0,0,1,14.1963,5.88q5.6264,5.88,5.6279,14.9522Z"/><path class="cls-1" d="M807.0889,105.1787l.5879-6.0478a40.7742,40.7742,0,0,0,11.5078,1.9316q7.9789,0,10.458-3.3594a16.533,16.533,0,0,0,2.9814-5.5439,27.69,27.69,0,0,0,.5049-5.9639V71.7471q0-7.3081-3.4443-11.5078a11.6093,11.6093,0,0,0-9.4922-4.2,12.56,12.56,0,0,0-9.3662,3.8222,12.9871,12.9871,0,0,0-3.7373,9.4492,12.8141,12.8141,0,0,0,3.6953,9.3243,13.571,13.571,0,0,0,14.3222,2.8564,23.97,23.97,0,0,0,5.334-3.78v6.9717a25.4317,25.4317,0,0,1-5.7539,3.4444,15.7467,15.7467,0,0,1-5.67.9238,17.7948,17.7948,0,0,1-13.3145-5.8379,19.4141,19.4141,0,0,1-5.5859-13.9024,19.1748,19.1748,0,0,1,5.8379-14.0693,19.3739,19.3739,0,0,1,14.2383-5.8379,18.3592,18.3592,0,0,1,14.1963,5.9639q5.4594,5.9649,5.46,15.54V87.3711q0,9.3237-5.124,14.5322-5.1255,5.206-14.28,5.208A54.0324,54.0324,0,0,1,807.0889,105.1787Z"/><path class="cls-1" d="M880,70.6553l4.7031,2.6035q-4.6215,15.794-19.74,15.792a19.3124,19.3124,0,0,1-14.07-5.7539,18.9956,18.9956,0,0,1-5.8379-14.07,19.5129,19.5129,0,0,1,19.9082-19.8233q11.2559,0,17.64,11.34l-24.4433,15.96-2.8574-4.957,18.5693-12.4248a10.907,10.907,0,0,0-8.9053-3.87,12.4,12.4,0,0,0-9.2431,3.7793,13.1327,13.1327,0,0,0-3.6954,9.5761,13.9387,13.9387,0,0,0,4.0313,9.9961,12.92,12.92,0,0,0,9.66,4.2,13.2777,13.2777,0,0,0,8.9892-3.1924A17.7736,17.7736,0,0,0,880,70.6553Z"/><path class="cls-1" d="M942.999,88.2949h-6.72V65.4473a10.1682,10.1682,0,0,0-2.1846-6.8887,7.4827,7.4827,0,0,0-5.9638-2.52q-4.4532,0-6.0479,2.3935a12.7975,12.7975,0,0,0-1.9316,3.8643,21.3219,21.3219,0,0,0-.3369,4.41V88.2949h-6.72v-22.26q0-9.9962-8.4834-9.9961-4.2846,0-5.9228,2.4355a11.94,11.94,0,0,0-1.89,3.6963,24.2164,24.2164,0,0,0-.2519,4.2V88.2949h-6.72V65.3633a23.8685,23.8685,0,0,1,.7979-7.0567,16.1916,16.1916,0,0,1,3.9063-5.67q3.1054-3.2329,9.7431-3.2334a13.4506,13.4506,0,0,1,12.2647,7.0557,13.0126,13.0126,0,0,1,12.0117-7.0557q6.6342,0,10.542,4.1572Q943,57.7193,942.999,64.6914Z"/><path class="cls-1" d="M983.1523,70.6553l4.7032,2.6035q-4.6216,15.794-19.74,15.792a19.3126,19.3126,0,0,1-14.07-5.7539,18.9956,18.9956,0,0,1-5.8379-14.07,19.5129,19.5129,0,0,1,19.9082-19.8233q11.2559,0,17.64,11.34l-24.4434,15.96-2.8574-4.957,18.5693-12.4248a10.9068,10.9068,0,0,0-8.9052-3.87,12.4,12.4,0,0,0-9.2432,3.7793,13.133,13.133,0,0,0-3.6953,9.5761,13.9386,13.9386,0,0,0,4.0312,9.9961,12.92,12.92,0,0,0,9.66,4.2,13.2781,13.2781,0,0,0,8.9893-3.1924A17.7735,17.7735,0,0,0,983.1523,70.6553Z"/><path class="cls-1" d="M1025.9072,88.2949h-6.72V68.3027q0-5.8784-2.52-9.0722a8.6643,8.6643,0,0,0-7.2236-3.1914q-9.8277,0-9.8282,12.6V88.2949h-6.72V66.791q0-7.812,4.5361-12.6t12.0957-4.7881q7.39,0,11.8858,4.7451,4.4927,4.7476,4.4941,12.5586Z"/><path class="cls-1" d="M1039.9336,56.207V74.0146q0,4.957,1.7637,6.6368t7.1406,1.68h3.2754v5.9638h-3.6113q-8.7378,0-12.0127-3.0244t-3.2754-11.0039V38.7354h6.72V50.3271h12.18v5.88Z"/><path class="cls-1" d="M1087.8965,105.1787l.5879-6.0478a40.7742,40.7742,0,0,0,11.5078,1.9316q7.979,0,10.458-3.3594a16.5312,16.5312,0,0,0,2.9814-5.5439,27.6834,27.6834,0,0,0,.5049-5.9639V71.7471q0-7.3081-3.4443-11.5078a11.6093,11.6093,0,0,0-9.4922-4.2,12.56,12.56,0,0,0-9.3662,3.8222,12.9871,12.9871,0,0,0-3.7373,9.4492,12.8145,12.8145,0,0,0,3.6953,9.3243,13.5711,13.5711,0,0,0,14.3223,2.8564,23.97,23.97,0,0,0,5.3339-3.78v6.9717a25.4317,25.4317,0,0,1-5.7539,3.4444,15.7467,15.7467,0,0,1-5.67.9238,17.7945,17.7945,0,0,1-13.3144-5.8379,19.4142,19.4142,0,0,1-5.586-13.9024,19.1748,19.1748,0,0,1,5.8379-14.0693A19.3739,19.3739,0,0,1,1101,49.4033a18.3591,18.3591,0,0,1,14.1963,5.9639q5.4594,5.9649,5.46,15.54V87.3711q0,9.3237-5.1241,14.5322-5.1255,5.206-14.28,5.208A54.0325,54.0325,0,0,1,1087.8965,105.1787Z"/><path class="cls-1" d="M1136.4473,88.2949h-6.72V50.1592h6.72v6.72a13.1079,13.1079,0,0,1,12.4326-7.56h2.52v6.3272h-1.3437q-7.0561,0-10.3321,3.7119-3.2768,3.7134-3.2763,11.6416Z"/><path class="cls-1" d="M1173.1553,49.4033a18.8808,18.8808,0,0,1,13.9443,5.88,19.4825,19.4825,0,0,1,5.7959,14.1953A18.8154,18.8154,0,0,1,1187.1,83.2549a19.0108,19.0108,0,0,1-13.9443,5.7959,19.5838,19.5838,0,0,1-14.28-5.7959,19.1661,19.1661,0,0,1-5.88-14.1963,18.7779,18.7779,0,0,1,5.88-13.8594A19.5838,19.5838,0,0,1,1173.1553,49.4033Zm0,6.6358a12.8454,12.8454,0,0,0-9.3242,3.78,12.428,12.428,0,0,0-3.8633,9.2393,13.06,13.06,0,0,0,13.3554,13.3564,11.9636,11.9636,0,0,0,8.82-3.8642,12.5535,12.5535,0,0,0,3.78-9.0723,13.2762,13.2762,0,0,0-3.7383-9.5332A12.0416,12.0416,0,0,0,1173.1553,56.0391Z"/><path class="cls-1" d="M1224.3945,50.1592h6.72V71.8311q0,7.812-4.5362,12.5156t-12.0117,4.7041q-7.393,0-11.9277-4.7041-4.5366-4.7037-4.5362-12.5156V50.1592h6.72V70.2354q0,5.7948,2.5195,8.9873a8.5689,8.5689,0,0,0,7.1406,3.1923,9.7,9.7,0,0,0,4.7461-1.1757,10.1021,10.1021,0,0,0,3.6533-3.57q1.5132-2.3935,1.5127-8.0224Z"/><path class="cls-1" d="M1238.6738,106.2705v-35.5q0-9.4218,5.544-15.3945a18.6993,18.6993,0,0,1,14.3642-5.9727,19.1969,19.1969,0,0,1,14.2373,5.8379,19.6237,19.6237,0,0,1,5.7539,14.3213,18.9557,18.9557,0,0,1-5.7119,13.7764,18.4494,18.4494,0,0,1-13.6074,5.7959,17.5724,17.5724,0,0,1-11.0879-4.1162V77.7109a22.8626,22.8626,0,0,0,5.292,3.6963,12.2,12.2,0,0,0,5.208,1.0918,12.3917,12.3917,0,0,0,9.2393-3.78,13.82,13.82,0,0,0,0-18.8155,11.975,11.975,0,0,0-8.9873-3.8642,13.3647,13.3647,0,0,0-6.2168,1.4726,14.0036,14.0036,0,0,0-5.0821,4.7539q-2.2264,3.2813-2.2255,9.9287v34.0762Z"/></svg>