<svg id="Layer_1" data-name="Layer 1" xmlns="http://www.w3.org/2000/svg" viewBox="0 0 128 128"><defs><style>.cls-1{fill:#a3b6fb;}.cls-2{fill:#ba8be4;}.cls-3{fill:#8f52ec;}.cls-4{fill:#7493e8;}.cls-5{fill:#9d64ea;}.cls-6{fill:#9671f1;}.cls-7{fill:#5f6fe0;}</style></defs><title>omniport_logo</title><path class="cls-1" d="M47.4566,42.6416v59.0469A2.2283,2.2283,0,0,1,45.3266,104h-19.2a2.2283,2.2283,0,0,1-2.13-2.3115V40.33a2.2215,2.2215,0,0,0,2.13,2.3116Z"/><path class="cls-2" d="M103.9967,40.33V87.66a2.4683,2.4683,0,0,0-2.13-2.7006h-21.34V43.0306h21.34A2.4683,2.4683,0,0,0,103.9967,40.33Z"/><path class="cls-3" d="M87.6567,24a2.4694,2.4694,0,0,0-2.7006,2.13V47.46H43.0272V26.13a2.4612,2.4612,0,0,0-2.7-2.13Z"/><path class="cls-4" d="M87.6567,104H55.2833a2.3308,2.3308,0,0,1-2.4866-2.13V82.66a2.324,2.324,0,0,1,2.4866-2.13H85.17v21.34A2.3383,2.3383,0,0,0,87.6567,104Z"/><path class="cls-5" d="M103.9967,26.13v19.2a2.1317,2.1317,0,0,1-2.13,2.13h-21.34V26.13a2.1317,2.1317,0,0,1,2.13-2.13h19.21A2.1317,2.1317,0,0,1,103.9967,26.13Z"/><path class="cls-6" d="M47.4566,26.13V47.46h-21.33a2.1253,2.1253,0,0,1-2.13-2.13V26.13a2.1253,2.1253,0,0,1,2.13-2.13h19.2A2.1254,2.1254,0,0,1,47.4566,26.13Z"/><path class="cls-7" d="M103.9967,82.66v19.21a2.1382,2.1382,0,0,1-2.13,2.13h-19.21a2.1382,2.1382,0,0,1-2.13-2.13V80.53h21.34A2.1317,2.1317,0,0,1,103.9967,82.66Z"/></svg>